# Blender v3.1.2 OBJ File: ''
# www.blender.org
mtllib island.mtl
o Icosphere
v 0.278912 -3.742569 0.685058
v 0.728284 -0.726028 0.523029
v -0.389454 -0.713568 0.928432
v -1.121860 -0.600613 0.109517
v -0.316703 -0.593492 -1.169771
v 0.739493 -0.669461 -0.944396
v -0.025293 0.558986 1.016135
v -0.797788 0.463850 0.505750
v -0.804863 0.737472 -0.469926
v -0.051911 1.904650 -0.568224
v 0.456051 1.278804 0.316705
v -0.275875 2.125166 0.256449
v 0.539341 -3.742569 -0.738231
v -0.852217 -3.742569 0.049679
v 0.391142 -0.959975 0.959402
v 0.976843 -0.740415 -0.375736
v -0.304666 -3.742569 0.661905
v -0.250277 -3.742569 -0.906723
v -1.054494 -0.873660 0.692907
v 0.530960 -3.742569 0.358823
v -0.736755 -0.689684 -0.814936
v 0.248299 -0.885301 -1.184068
v 0.819695 0.231339 0.401343
v 1.046097 0.435794 -0.161733
v -0.076019 -0.041711 0.979425
v 0.389978 0.025575 0.800283
v -0.985709 -0.014461 0.349720
v -0.604806 -0.028436 0.806369
v -0.611872 0.088788 -0.805039
v -0.957369 -0.000369 -0.322247
v 0.510707 0.439776 -0.687146
v -0.048236 0.225081 -0.913474
v 0.266658 1.014344 0.841025
v -0.482131 0.565834 0.865782
v -0.904685 0.678919 0.008489
v -0.496100 1.539240 -0.699228
v 0.255701 1.666196 -0.130832
v -0.195220 1.387515 0.699443
v 0.060383 1.797535 0.317710
v -0.657119 1.388444 0.355942
v -0.567001 2.007166 -0.076840
v -0.197152 2.817338 -0.124163
v 0.716784 -3.742569 -0.313098
v -0.801853 -3.742569 0.485825
v -0.564310 -3.742569 -0.641446
v 0.172121 -3.742569 -0.917412
vt 0.545455 0.157461
vt 0.454546 0.157461
vt 0.545455 0.157461
vt 0.272728 0.157461
vt 0.363637 0.157461
vt 0.318182 0.236191
vt 0.090910 0.157461
vt 0.181819 0.157461
vt 0.136365 0.236191
vt 0.818182 0.157461
vt 0.909091 0.157461
vt 0.863636 0.236191
vt 0.636364 0.157461
vt 0.727273 0.157461
vt 0.681818 0.236191
vt 0.454546 0.157461
vt 0.500000 0.236191
vt 0.227273 0.236191
vt 0.045455 0.236191
vt 0.772727 0.236191
vt 0.590909 0.236191
vt 0.409092 0.236191
vt 0.181819 0.314921
vt 0.272728 0.314921
vt 0.227273 0.393651
vt 0.000000 0.314921
vt 0.090910 0.314921
vt 0.045455 0.393651
vt 0.727273 0.314921
vt 0.818182 0.314921
vt 0.772727 0.393651
vt 0.545455 0.314921
vt 0.636364 0.314921
vt 0.590909 0.393651
vt 0.363637 0.314921
vt 0.454546 0.314921
vt 0.409092 0.393651
vt 0.500000 0.393651
vt 0.454546 0.472382
vt 0.681818 0.393651
vt 0.636364 0.472382
vt 0.863636 0.393651
vt 0.818182 0.472382
vt 0.909091 0.314921
vt 0.136365 0.393651
vt 0.090910 0.472382
vt 0.318182 0.393651
vt 0.272728 0.472382
vt 0.954545 0.236191
vt 1.000000 0.157461
vt 0.636364 0.157461
vt 0.272728 0.157461
vt 0.818182 0.157461
vt 0.727273 0.157461
vt 0.909091 0.157461
vt 0.363637 0.157461
vt 1.000000 0.157461
vt 0.090910 0.157461
vt 0.181819 0.157461
vn 0.4365 -0.0951 -0.8946
vn 0.9620 -0.0579 0.2670
vn -0.0553 -0.0499 0.9972
vn -0.9715 0.1508 0.1828
vn -0.6563 0.1148 -0.7458
vn 0.3207 0.2763 -0.9060
vn 0.6724 0.0298 0.7396
vn -0.3086 0.0720 0.9485
vn -0.9701 0.2400 -0.0359
vn -0.2603 0.3652 -0.8938
vn 0.6701 0.2961 -0.6806
vn 0.0026 0.3575 0.9339
vn -0.7637 0.2148 0.6087
vn -0.9574 0.2324 -0.1713
vn -0.0839 0.4251 -0.9012
vn 0.7842 0.5978 0.1664
vn 0.2724 0.4396 0.8559
vn 0.8922 0.3493 0.2862
vn 0.8468 0.3355 -0.4126
vn -0.7595 0.3776 0.5297
vn -0.8520 0.3672 -0.3731
vn -0.9150 0.2655 -0.3038
vn -0.7450 0.4518 0.4908
vn -0.9537 0.2529 0.1630
vn -0.9401 0.1890 0.2838
vn -0.5503 0.3848 0.7410
vn -0.5591 0.3476 0.7527
vn -0.2955 0.2876 0.9110
vn 0.3537 0.5097 0.7843
vn 0.2311 0.5819 0.7797
vn 0.6844 0.5210 0.5100
vn 0.8390 0.5368 0.0890
vn 0.6358 0.4246 -0.6446
vn 0.8445 0.3568 -0.3994
vn 0.1221 0.2001 -0.9721
vn -0.2086 0.0877 -0.9741
vn -0.7573 0.1074 -0.6441
vn -0.9695 0.1639 -0.1822
vn -0.9945 0.0966 -0.0399
vn -0.9152 0.2589 0.3087
vn -0.7616 0.0931 0.6413
vn -0.3116 -0.0306 0.9497
vn -0.3129 -0.0316 0.9493
vn 0.4857 0.0246 0.8738
vn 0.6659 0.0524 0.7442
vn 0.8258 0.3240 0.4617
vn 0.3039 0.1925 -0.9331
vn 0.2598 0.2936 -0.9200
vn 0.1118 0.2634 -0.9582
vn -0.8167 0.0538 -0.5745
vn -0.8173 0.1382 -0.5594
vn -0.9236 -0.0221 -0.3826
vn -0.7633 0.0913 0.6395
vn -0.7270 0.3041 0.6157
vn -0.3457 0.0582 0.9365
vn 0.3684 -0.0877 0.9255
vn 0.3357 0.1505 0.9299
vn 0.7591 0.1046 0.6426
vn 0.8307 0.3249 0.4520
vn 0.9354 -0.1159 0.3340
vn 0.9234 0.0154 -0.3835
vn -0.0688 -0.0845 -0.9940
vn 0.8099 -0.0846 0.5804
vn -0.9232 -0.0720 -0.3776
vn -0.6433 -0.0796 -0.7615
vn -0.9889 -0.0953 0.1142
vn 0.9609 -0.0777 0.2657
vn -0.3127 -0.0919 0.9454
vn -0.0395 -0.0965 0.9946
vn 0.9156 -0.0860 -0.3929
vn 0.0000 -1.0000 0.0000
vn 0.4682 -0.0895 -0.8791
vn -0.0252 -0.0922 -0.9954
vn 0.7880 -0.0918 0.6088
vn -0.9206 -0.0738 -0.3835
vn -0.6329 -0.0777 -0.7703
vn -0.9935 -0.0867 0.0742
vn 0.9606 -0.0774 0.2669
vn -0.3323 -0.0970 0.9382
vn -0.0676 -0.0893 0.9937
vn 0.9193 -0.0876 -0.3837
usemtl None
s off
f 22/1/1 13/2/1 46/3/1
f 2/4/2 16/5/2 23/6/2
f 3/7/3 15/8/3 25/9/3
f 4/10/4 19/11/4 27/12/4
f 5/13/5 21/14/5 29/15/5
f 6/16/6 22/1/6 31/17/6
f 2/4/7 23/6/7 26/18/7
f 3/7/8 25/9/8 28/19/8
f 4/10/9 27/12/9 30/20/9
f 5/13/10 29/15/10 32/21/10
f 6/16/11 31/17/11 24/22/11
f 7/23/12 33/24/12 38/25/12
f 8/26/13 34/27/13 40/28/13
f 9/29/14 35/30/14 41/31/14
f 10/32/15 36/33/15 42/34/15
f 11/35/16 37/36/16 39/37/16
f 39/37/17 42/38/17 12/39/17
f 39/37/18 37/36/18 42/38/18
f 37/36/19 10/32/19 42/38/19
f 42/34/20 41/40/20 12/41/20
f 42/34/21 36/33/21 41/40/21
f 36/33/22 9/29/22 41/40/22
f 41/31/23 40/42/23 12/43/23
f 41/31/24 35/30/24 40/42/24
f 35/30/25 8/44/25 40/42/25
f 40/28/26 38/45/26 12/46/26
f 40/28/27 34/27/27 38/45/27
f 34/27/28 7/23/28 38/45/28
f 38/25/29 39/47/29 12/48/29
f 38/25/30 33/24/30 39/47/30
f 33/24/31 11/35/31 39/47/31
f 24/22/32 37/36/32 11/35/32
f 24/22/33 31/17/33 37/36/33
f 31/17/34 10/32/34 37/36/34
f 32/21/35 36/33/35 10/32/35
f 32/21/36 29/15/36 36/33/36
f 29/15/37 9/29/37 36/33/37
f 30/20/38 35/30/38 9/29/38
f 30/20/39 27/12/39 35/30/39
f 27/12/40 8/44/40 35/30/40
f 28/19/41 34/27/41 8/26/41
f 28/19/42 25/9/42 34/27/42
f 25/9/43 7/23/43 34/27/43
f 26/18/44 33/24/44 7/23/44
f 26/18/45 23/6/45 33/24/45
f 23/6/46 11/35/46 33/24/46
f 31/17/47 32/21/47 10/32/47
f 31/17/48 22/1/48 32/21/48
f 22/1/49 5/13/49 32/21/49
f 29/15/50 30/20/50 9/29/50
f 29/15/51 21/14/51 30/20/51
f 21/14/52 4/10/52 30/20/52
f 27/12/53 28/49/53 8/44/53
f 27/12/54 19/11/54 28/49/54
f 19/11/55 3/50/55 28/49/55
f 25/9/56 26/18/56 7/23/56
f 25/9/57 15/8/57 26/18/57
f 15/8/58 2/4/58 26/18/58
f 23/6/59 24/22/59 11/35/59
f 23/6/60 16/5/60 24/22/60
f 16/5/61 6/16/61 24/22/61
f 22/1/62 18/51/62 5/13/62
f 15/8/63 20/52/63 2/4/63
f 21/14/64 14/53/64 4/10/64
f 21/14/65 18/51/65 45/54/65
f 19/11/66 14/53/66 44/55/66
f 16/5/67 20/52/67 43/56/67
f 19/11/68 17/57/68 3/50/68
f 15/8/69 17/58/69 1/59/69
f 16/5/70 13/2/70 6/16/70
f 46/3/71 43/56/71 45/54/71
f 22/1/72 6/16/72 13/2/72
f 22/1/73 46/3/73 18/51/73
f 15/8/74 1/59/74 20/52/74
f 21/14/75 45/54/75 14/53/75
f 21/14/76 5/13/76 18/51/76
f 19/11/77 4/10/77 14/53/77
f 16/5/78 2/4/78 20/52/78
f 19/11/79 44/55/79 17/57/79
f 15/8/80 3/7/80 17/58/80
f 16/5/81 43/56/81 13/2/81
f 46/3/71 13/2/71 43/56/71
f 43/56/71 20/52/71 45/54/71
f 20/52/71 1/59/71 17/57/71
f 45/54/71 20/52/71 17/57/71
f 17/57/71 44/55/71 14/53/71
f 45/54/71 17/57/71 14/53/71
f 45/54/71 18/51/71 46/3/71
