# Blender v3.1.2 OBJ File: 'untitled.blend'
# www.blender.org
mtllib island2.mtl
o Icosphere_Icosphere.001
v 0.407160 -0.484351 0.713291
v 0.097620 -0.075252 0.941110
v 0.017831 -0.644417 0.792740
v 0.716569 -0.353537 -0.490636
v 0.547222 -0.318694 -0.652456
v 0.575209 0.041002 -0.770072
v 1.195274 1.827730 0.157765
v 1.217100 1.484757 -0.009833
v 1.102397 1.532877 -0.417569
v 0.965566 2.160957 -0.554783
v 0.897952 0.270606 -0.525265
v 1.057954 0.363112 -0.106646
v 0.612679 2.542913 -0.214519
v 0.717552 2.374754 -0.613842
v 0.272838 2.392701 -0.512875
v -0.066306 1.896013 -1.088012
v 0.345630 1.580938 -1.071924
v -0.233538 1.397469 -1.181432
v -0.777390 1.678851 -0.545371
v 0.715645 2.258533 0.277506
v 0.048840 2.052685 0.471634
v 0.966915 2.297543 -0.117850
v -0.959926 1.664016 0.398899
v -0.613345 1.547213 0.763358
v 0.796365 1.201799 0.759870
v 0.483801 1.748888 0.673219
v 0.167327 0.719037 1.051125
v 1.066684 1.326290 0.512705
v 1.113575 0.992948 0.285740
v 0.761274 1.123779 -0.787441
v 0.510641 0.663249 -0.898716
v -0.040583 0.540435 -0.954560
v -0.733312 1.256256 -0.997691
v -0.734643 0.446000 -0.607666
v -1.202335 1.099268 -0.309363
v -1.181066 1.404713 -0.269563
v -1.037722 0.329331 -0.051297
v -1.263158 0.967318 0.387754
v -0.918350 -0.169925 0.215678
v -1.213561 1.247486 0.491662
v -0.908320 0.675228 0.838606
v -0.717562 1.095092 0.919361
v -0.382125 -0.361513 0.787854
v -0.279614 0.496730 1.045890
v 0.629753 0.459197 0.866766
v 0.850502 0.220903 0.593889
v 0.145762 -0.343480 -0.777007
v -0.254828 -0.257800 -0.743494
v -0.809618 -0.334892 -0.260469
v -0.699704 -0.181303 0.598054
v 0.804659 -0.459350 0.242757
v 0.844108 -0.407714 -0.170588
v 0.680165 -0.616569 0.466622
v 0.590407 -3.021727 0.309070
v -0.480865 -0.317759 -0.618630
v -0.566941 -3.019991 -0.308928
v 0.120359 -1.543644 -0.748413
v -0.277494 -3.019699 -0.600753
v -0.204803 -1.567184 -0.718982
v 0.303956 -3.022046 0.577049
v -0.479696 -1.497792 0.543497
v -0.209137 -1.369843 0.712665
v 0.501042 -3.020183 -0.441032
v -0.680693 -1.603296 0.220901
v -0.455399 -3.021445 0.455592
v 0.109232 -3.019840 -0.647073
v 0.649226 -3.020955 -0.106413
v -0.720605 -1.661266 -0.120197
v -0.650244 -3.020778 0.083446
v -0.113343 -3.021986 0.648201
vt 0.255465 0.296522
vt 0.210005 0.318341
vt 0.209663 0.261844
vt 0.527456 0.360349
vt 0.500317 0.356570
vt 0.494443 0.306722
vt 0.624982 0.661481
vt 0.651075 0.618052
vt 0.705380 0.627495
vt 0.717237 0.710716
vt 0.539265 0.273963
vt 0.676811 0.467872
vt 0.173123 0.705291
vt 0.226175 0.732434
vt 0.177192 0.765917
vt 0.370034 0.071281
vt 0.429499 0.104196
vt 0.354316 0.138668
vt 0.217996 0.869770
vt 0.108660 0.919651
vt 0.225411 0.643419
vt 0.196195 0.705291
vt 0.146516 0.587839
vt 0.249924 0.681539
vt 0.021985 0.519527
vt 0.076861 0.492143
vt 0.295657 0.616899
vt 0.269041 0.494590
vt 0.214113 0.552856
vt 0.203199 0.402449
vt 0.296910 0.532993
vt 0.583452 0.589101
vt 0.617296 0.547955
vt 0.734252 0.458132
vt 0.760336 0.572688
vt 0.471681 0.224174
vt 0.499400 0.160319
vt 0.400578 0.251016
vt 0.296910 0.170971
vt 0.321657 0.284111
vt 0.906085 0.066186
vt 0.897448 0.025945
vt 1.000000 0.038912
vt 0.881894 0.172653
vt 0.814130 0.091761
vt 0.853027 0.242908
vt 0.797471 0.055755
vt 0.059460 0.380347
vt 0.076425 0.427785
vt 0.000000 0.459043
vt 0.150837 0.282360
vt 0.149671 0.364740
vt 0.552618 0.566155
vt 0.546996 0.463986
vt 0.266098 0.398990
vt 0.585400 0.438320
vt 0.445071 0.366183
vt 0.392438 0.364001
vt 0.957285 0.151686
vt 0.919328 0.259758
vt 0.760336 0.137398
vt 0.803999 0.249741
vt 0.783419 0.277233
vt 0.639926 0.351201
vt 0.694471 0.363236
vt 0.612119 0.326116
vt 0.659850 0.006885
vt 0.969646 0.254506
vt 0.958663 0.618669
vt 0.578541 0.337273
vt 0.463349 0.524786
vt 0.441302 0.729560
vt 0.422300 0.535275
vt 0.296910 0.016912
vt 0.101619 0.306064
vt 0.159210 0.167908
vt 0.194901 0.178904
vt 0.760336 0.014318
vt 0.737031 0.372327
vt 0.828239 0.425733
vt 0.870785 0.435276
vt 0.857665 0.628259
vt 0.367573 0.378819
vt 0.168540 0.975231
vt 0.053842 0.961564
vt 0.514498 0.023833
vt 0.546996 0.105764
vt 0.657350 0.723989
vt 0.668655 0.752959
vt 0.723539 0.736488
vt 0.476900 0.000000
vt 0.000000 0.881379
vt 0.226175 0.929293
vt 0.069735 0.754231
vt 0.807182 0.000000
vt 0.546996 0.715882
vt 0.490294 0.720583
vt 0.715179 0.012441
vt 0.624921 0.000000
vt 0.916603 0.438862
vt 0.905651 0.623066
vt 1.000000 0.616296
vt 0.243663 0.000000
vt 0.195263 0.002950
vn 0.3011 -0.2798 0.9116
vn 0.6309 -0.2850 -0.7216
vn 0.9572 0.1639 -0.2385
vn 0.6888 -0.2382 -0.6847
vn 0.9532 -0.1110 -0.2812
vn -0.0538 0.9152 -0.3995
vn 0.1423 0.1360 -0.9804
vn -0.5155 0.7751 -0.3654
vn -0.1125 0.8499 0.5148
vn 0.4583 0.8077 0.3709
vn -0.3328 0.7590 0.5597
vn 0.6513 0.5938 0.4725
vn 0.2221 0.2750 0.9354
vn 0.5068 0.4077 0.7596
vn 0.9640 -0.0647 0.2579
vn 0.9635 -0.0442 0.2640
vn 0.9357 -0.1234 -0.3304
vn 0.7711 -0.0709 -0.6327
vn 0.5655 -0.1103 -0.8173
vn 0.5097 -0.0702 -0.8575
vn 0.1471 -0.2220 -0.9639
vn -0.2532 -0.3004 -0.9196
vn -0.3646 -0.4034 -0.8393
vn -0.8329 0.1281 -0.5383
vn -0.9596 -0.2490 -0.1309
vn -0.9568 -0.2766 -0.0894
vn -0.9943 0.0786 -0.0719
vn -0.9843 0.1763 -0.0056
vn -0.6230 0.1348 0.7705
vn -0.3627 -0.2283 0.9035
vn -0.3220 -0.0356 0.9461
vn -0.0845 0.1466 0.9856
vn 0.6863 -0.0495 0.7256
vn 0.3914 0.0445 0.9191
vn 0.7324 -0.0937 0.6744
vn 0.1401 -0.1865 -0.9724
vn 0.1605 -0.1617 -0.9737
vn -0.1282 -0.2212 -0.9668
vn -0.8573 -0.1382 -0.4960
vn -0.6186 -0.3484 0.7042
vn -0.8066 -0.0747 0.5864
vn 0.2888 -0.1562 0.9446
vn 0.9607 -0.2713 0.0578
vn 0.8903 -0.0628 0.4510
vn -0.7343 -0.0542 -0.6766
vn 0.5856 -0.2369 0.7752
vn -0.0844 -0.0766 -0.9935
vn 0.2237 -0.0613 0.9727
vn -0.5612 -0.1277 0.8178
vn -0.4739 -0.1461 0.8684
vn 0.2978 -0.0290 -0.9542
vn 0.9210 -0.0815 -0.3808
vn -0.8413 -0.0445 0.5387
vn -0.1715 -0.2259 0.9589
vn -0.7120 -0.2271 -0.6644
vn -0.4508 -0.1371 -0.8820
vn 0.2988 -0.3175 -0.8999
vn -0.1436 -0.2692 0.9523
vn -0.4306 -0.1209 -0.8944
vn -0.5329 0.3832 0.7545
vn -0.6936 0.4914 -0.5267
vn 0.6550 0.0402 -0.7546
vn 0.9188 0.3760 -0.1204
vn 0.6261 0.7543 -0.1974
vn 0.3646 0.3313 -0.8702
vn -0.5705 0.8155 -0.0975
vn -0.1075 0.7829 -0.6127
vn -0.4023 0.2972 -0.8659
vn -0.6061 0.5509 -0.5737
vn -0.4124 0.8860 0.2122
vn 0.5119 0.3888 0.7660
vn -0.8444 0.5306 0.0735
vn -0.5501 0.4862 0.6790
vn 0.0478 0.5989 0.7994
vn 0.0098 0.3365 0.9416
vn -0.0268 0.5258 0.8502
vn 0.9484 -0.2088 0.2385
vn 0.9841 -0.1481 0.0982
vn 0.6543 -0.1244 -0.7459
vn 0.2269 -0.1411 -0.9636
vn 0.0591 -0.1420 0.9881
vn -0.8303 -0.3243 0.4533
vn 0.9034 -0.1471 0.4027
vn -0.7946 -0.3388 -0.5039
vn -0.7626 -0.2796 -0.5834
vn -0.9500 -0.2895 -0.1166
vn 0.4395 -0.0731 -0.8953
vn 0.3591 -0.2318 0.9041
vn 0.6222 -0.2665 0.7361
vn 0.8757 -0.2765 -0.3958
vn 0.9247 -0.2315 -0.3023
vn 0.9908 -0.0755 0.1127
vn -0.1187 -0.0671 -0.9907
vn 0.9102 -0.2368 0.3399
vn 0.6663 -0.0701 0.7423
vn -0.9787 -0.0854 -0.1866
vn -0.9778 -0.0858 -0.1910
vn -0.9773 -0.0860 -0.1934
vn -0.9792 -0.0852 -0.1840
vn -0.9749 -0.0815 -0.2071
vn -0.4762 -0.0346 -0.8787
vn -0.5119 -0.0442 -0.8579
vn -0.7088 -0.0580 -0.7031
vn -0.0882 -0.0219 -0.9959
vn -0.4982 -0.0603 0.8649
vn -0.0735 -0.0867 0.9935
vn -0.1887 -0.0492 0.9808
vn 0.1677 -0.0690 0.9834
vn -0.8408 -0.1493 0.5204
vn 0.6818 -0.0687 -0.7283
vn 0.9115 -0.0779 -0.4038
vn -0.9767 -0.1614 0.1417
vn -0.8842 -0.0639 0.4628
vn -0.9920 -0.0331 0.1217
usemtl None.001
s 1
f 1/1/1 2/2/1 3/3/1
f 4/4/2 5/5/2 6/6/2
f 7/7/3 8/8/3 9/9/3 10/10/3
f 6/6/4 11/11/4 4/4/4
f 9/9/5 8/8/5 12/12/5
f 13/13/6 14/14/6 15/15/6
f 16/16/7 17/17/7 18/18/7
f 16/19/8 19/20/8 15/15/8
f 20/21/9 13/22/9 21/23/9
f 22/24/10 13/22/10 20/21/10
f 23/25/11 24/26/11 21/23/11
f 22/24/12 20/21/12 7/27/12
f 25/28/13 26/29/13 27/30/13
f 28/31/14 7/27/14 25/28/14
f 8/8/15 7/7/15 28/32/15
f 28/32/16 29/33/16 8/8/16
f 9/9/17 12/12/17 11/34/17
f 11/34/18 30/35/18 9/9/18
f 31/36/19 30/37/19 6/6/19
f 17/17/20 30/37/20 31/36/20
f 18/18/21 31/36/21 32/38/21
f 32/38/22 33/39/22 18/18/22
f 34/40/23 33/39/23 32/38/23
f 35/41/24 36/42/24 33/43/24
f 37/44/25 38/45/25 35/41/25
f 39/46/26 38/45/26 37/44/26
f 35/41/27 38/45/27 36/42/27
f 38/45/28 40/47/28 36/42/28
f 41/48/29 42/49/29 40/50/29
f 43/51/30 44/52/30 41/48/30
f 41/48/31 44/52/31 42/49/31
f 44/52/32 27/30/32 42/49/32
f 25/53/33 45/54/33 28/32/33
f 27/30/34 45/55/34 25/28/34
f 45/54/35 46/56/35 28/32/35
f 32/38/36 31/36/36 6/6/36
f 32/38/37 6/6/37 47/57/37
f 47/57/38 48/58/38 32/38/38
f 37/44/39 34/59/39 49/60/39
f 41/61/40 50/62/40 43/63/40
f 38/45/41 41/61/41 40/47/41
f 45/55/42 27/30/42 2/2/42
f 12/12/43 51/64/43 52/65/43
f 51/64/44 53/66/44 54/67/44
f 55/68/45 56/69/45 49/60/45
f 1/70/46 53/66/46 46/56/46
f 57/71/47 58/72/47 59/73/47
f 1/1/48 3/3/48 60/74/48
f 50/75/49 61/76/49 43/51/49
f 61/76/50 62/77/50 43/51/50
f 47/57/51 5/5/51 57/71/51
f 52/65/52 63/78/52 4/79/52
f 61/80/53 64/81/53 65/82/53
f 43/51/54 3/3/54 2/2/54
f 49/60/55 34/59/55 55/68/55
f 48/58/56 55/83/56 34/40/56
f 47/57/57 6/6/57 5/5/57
f 43/51/58 2/2/58 44/52/58
f 34/40/59 32/38/59 48/58/59
f 40/50/60 42/49/60 24/26/60
f 33/84/61 36/85/61 19/20/61
f 30/37/62 17/17/62 10/86/62 9/87/62
f 22/88/63 7/7/63 10/10/63
f 13/89/64 22/88/64 10/10/64 14/90/64
f 16/16/65 14/91/65 10/86/65 17/17/65
f 19/20/66 36/85/66 23/92/66 15/15/66
f 15/15/67 14/14/67 16/19/67
f 18/93/68 33/84/68 16/19/68
f 19/20/69 16/19/69 33/84/69
f 15/15/70 23/92/70 21/94/70 13/13/70
f 26/29/71 25/28/71 7/27/71 20/21/71
f 36/42/72 40/47/72 23/95/72
f 40/50/73 24/26/73 23/25/73
f 21/23/74 26/29/74 20/21/74
f 24/26/75 42/49/75 27/30/75 26/29/75
f 21/23/76 24/26/76 26/29/76
f 46/56/77 51/64/77 12/12/77 29/33/77
f 12/12/78 8/8/78 29/33/78
f 6/6/79 30/37/79 11/11/79
f 18/18/80 17/17/80 31/36/80
f 2/2/81 27/30/81 44/52/81
f 41/61/82 38/45/82 39/46/82 50/62/82
f 28/32/83 46/56/83 29/33/83
f 37/44/84 35/41/84 34/59/84
f 33/43/85 34/59/85 35/41/85
f 39/46/86 37/44/86 49/60/86
f 63/96/87 66/97/87 57/71/87 5/5/87
f 1/1/88 45/55/88 2/2/88
f 45/54/89 1/70/89 46/56/89
f 4/79/90 11/34/90 52/65/90
f 12/12/91 52/65/91 11/34/91
f 54/67/92 67/98/92 52/65/92 51/64/92
f 58/72/93 57/71/93 66/97/93
f 51/64/94 46/56/94 53/66/94
f 54/67/95 53/66/95 1/70/95 60/99/95
f 49/60/96 68/100/97 39/46/98
f 49/60/96 56/69/99 68/100/97
f 68/100/100 56/69/100 69/101/100
f 48/58/101 59/73/101 55/83/101
f 55/83/102 59/73/102 58/72/102
f 56/69/103 55/68/103 58/102/103
f 59/73/104 48/58/104 47/57/104 57/71/104
f 70/103/105 62/77/105 61/76/105 65/104/105
f 3/3/106 43/51/106 62/77/106
f 3/3/107 62/77/107 70/103/107
f 60/74/108 3/3/108 70/103/108
f 64/81/109 61/80/109 50/62/109 39/46/109
f 5/5/110 4/4/110 63/96/110
f 52/65/111 67/98/111 63/78/111
f 64/81/112 39/46/112 68/100/112
f 65/82/113 64/81/113 69/101/113
f 64/81/114 68/100/114 69/101/114
