# Blender v3.1.2 OBJ File: 'untitled.blend'
# www.blender.org
mtllib island5.mtl
o Sphere_Sphere.001
v 0.114699 1.494660 -0.347972
v -0.033761 0.270433 -0.998094
v -0.003269 -0.622413 -0.830318
v 0.200548 1.457273 -0.339147
v 0.645997 0.262737 -0.663164
v 0.570456 -0.622359 -0.571287
v 0.998789 0.183548 0.015092
v 0.803603 -0.622468 -0.000005
v 0.000000 -2.930196 0.000000
v 0.209093 1.549230 0.174541
v 0.711716 0.264699 0.712442
v 0.568410 -0.622477 0.568760
v 0.005211 1.536099 0.260379
v 0.001229 -0.622510 0.811402
v -0.612958 0.147781 0.712080
v -0.569379 -0.622411 0.569695
v -0.247600 1.485533 -0.021445
v -0.808936 -0.622410 0.000059
v -0.610766 0.439161 -0.579069
v -0.575951 -0.656784 -0.586497
v 0.085444 1.280753 -0.160853
v 0.173235 1.436850 0.031294
v 0.130443 1.079307 0.064764
v 0.089272 1.035195 0.140859
v -0.062355 1.122855 -0.096335
v 0.106368 0.812281 -0.577619
v 0.031886 0.505874 -0.816165
v 0.112370 0.542484 0.675812
v -0.028996 0.475596 0.891494
v -0.407318 0.325563 0.542717
v -0.034582 0.017422 -1.044240
v 0.007585 -2.328561 -0.548421
v 0.772083 0.537555 -0.353458
v 0.666591 -0.039006 -0.684374
v 0.410340 -2.303489 -0.376749
v 0.310226 -0.622272 -0.752521
v 0.334957 0.306522 -0.886205
v 0.235754 -2.344754 -0.494972
v 0.905988 0.502854 -0.016895
v 0.685574 -1.548613 0.000000
v 0.331132 -2.816736 -0.099992
v 0.506648 -2.439142 -0.126309
v 0.739510 -0.701668 -0.310326
v 0.876025 0.270725 -0.351655
v 0.235329 1.424962 -0.117647
v 0.650043 0.354507 0.710949
v 0.484774 -1.548613 0.484774
v 0.447569 -2.439143 0.268940
v 0.746287 -0.666563 0.303572
v 0.935166 0.257936 0.389799
v 0.257430 1.501329 0.070500
v -0.006548 -0.038737 0.994474
v 0.000000 -1.548613 0.685574
v 0.126309 -2.439142 0.506648
v 0.306084 -0.645157 0.754514
v 0.339744 0.271286 0.896194
v 0.093450 1.571131 0.237171
v -0.678896 -0.041325 0.709978
v -0.484774 -1.548613 0.484774
v -0.268940 -2.439143 0.447569
v -0.311048 -0.610879 0.756992
v -0.349322 0.292218 0.883328
v -0.968755 -0.040915 -0.010572
v -0.685574 -1.548613 0.000000
v -0.506648 -2.439143 0.126310
v -0.746368 -0.671549 0.306268
v -0.911931 0.266741 0.089593
v -0.155465 1.520565 0.190273
v -0.503568 0.681576 -0.505810
v -0.694169 -0.097098 -0.680349
v -0.447568 -2.439143 -0.268940
v -0.755171 -0.616182 -0.313410
v -0.836423 0.391710 -0.306926
v -0.223428 1.482302 -0.157517
v 0.119577 1.602975 0.163466
v -0.099992 -2.816736 -0.331132
v 0.163441 -2.816736 -0.304851
v 0.304851 -2.816736 0.163441
v -0.033339 1.593106 0.197432
v 0.099992 -2.816736 0.331132
v -0.163440 -2.816736 0.304851
v 0.159033 1.489878 -0.259784
v -0.331132 -2.816736 0.099993
v -0.304851 -2.816735 -0.163440
v -0.199174 -2.414301 -0.480848
v -0.310559 -0.618315 -0.774450
v -0.366660 0.298711 -0.864939
v -0.091690 1.526151 -0.274129
v 0.130369 1.391184 -0.178715
v -0.008908 1.531593 0.148322
v -0.156744 1.556701 0.088135
v -0.193808 1.541629 -0.092673
v -0.009249 1.288961 0.120326
v 0.101232 1.326928 0.084870
v -0.088772 1.551636 -0.220586
v 0.086137 1.096696 -0.104365
v 0.022043 1.000192 0.101437
v -0.112756 1.153653 -0.014826
v 0.105125 0.994292 0.090964
v 0.332267 1.256683 -0.263057
v 0.278538 1.219695 -0.404319
v 0.510086 0.983197 -0.248515
v 0.617649 0.713110 -0.197123
v 0.489540 0.378964 0.605079
v 0.233294 0.665531 0.599973
v 0.028469 0.638386 0.523343
v -0.148298 0.542863 0.542639
v -0.320389 1.017653 -0.017495
v -0.724319 0.500269 0.011299
v -0.097938 0.979734 -0.354897
v -0.471018 0.799011 -0.215676
v -0.329064 0.568459 -0.692135
v 0.152960 1.141724 -0.428878
v -0.661659 0.678268 -0.283756
v -0.339029 0.989818 -0.188064
v -0.229621 0.879897 0.180992
v -0.013184 1.042178 0.371383
v 0.329128 0.337978 0.774541
v 0.844414 0.457325 0.433952
v 0.567324 0.521454 0.329962
v 0.321878 0.966261 0.350051
v 0.618537 0.732302 -0.322102
v 0.339468 0.558913 -0.570650
v 0.344512 0.001240 -0.933374
v 0.887183 -0.038123 -0.359431
v 0.355628 -0.045243 0.890065
v -0.381301 -0.032253 0.937282
v -0.873820 -0.042101 0.364082
v -0.905314 -0.025191 -0.354769
v -0.392711 -0.065266 -0.942083
v -0.191573 0.709760 -0.546810
vt 0.297090 0.801033
vt 0.329511 0.761882
vt 0.338051 0.801033
vt 0.155017 0.753995
vt 0.124143 0.722670
vt 0.173641 0.700521
vt 0.226905 0.587167
vt 0.229031 0.647047
vt 0.195240 0.596656
vt 0.124143 0.678371
vt 0.177302 0.230723
vt 0.238132 0.218322
vt 0.190059 0.276088
vt 0.436868 0.729348
vt 0.439154 0.745046
vt 0.425144 0.746859
vt 0.703615 0.809363
vt 0.722412 0.801889
vt 0.728073 0.813217
vt 0.206442 0.362656
vt 0.247366 0.328864
vt 0.271739 0.458032
vt 0.088200 0.025118
vt 0.110024 0.000000
vt 0.088285 0.064010
vt 0.155017 0.647047
vt 0.682034 0.023634
vt 0.691337 0.012438
vt 0.701451 0.023917
vt 0.991356 0.384332
vt 0.959930 0.370436
vt 0.995504 0.229158
vt 0.172090 0.056919
vt 0.198680 0.647047
vt 0.901002 0.516365
vt 0.832144 0.508074
vt 0.842228 0.456053
vt 0.259199 0.759844
vt 0.269062 0.745394
vt 0.269062 0.773149
vt 0.243855 0.756571
vt 0.259199 0.775789
vt 0.245996 0.780957
vt 0.679745 0.787245
vt 0.690068 0.779191
vt 0.911983 0.369927
vt 0.859592 0.358506
vt 0.927802 0.216877
vt 0.229554 0.678371
vt 0.508320 0.353207
vt 0.552223 0.370215
vt 0.534776 0.513162
vt 0.229554 0.722670
vt 0.670991 0.251229
vt 0.681331 0.303783
vt 0.617973 0.296020
vt 0.601964 0.389450
vt 0.644920 0.011544
vt 0.672892 0.101621
vt 0.595405 0.078393
vt 0.198680 0.753995
vt 0.421400 0.788497
vt 0.428641 0.769107
vt 0.439154 0.792051
vt 0.416689 0.760278
vt 0.441273 0.715996
vt 0.412963 0.725946
vt 0.448403 0.633820
vt 0.322980 0.089283
vt 0.350655 0.003904
vt 0.357109 0.072700
vt 0.044605 0.029315
vt 0.060210 0.024499
vt 0.056613 0.036836
vt 0.264766 0.667693
vt 0.270152 0.686948
vt 0.229554 0.671546
vt 0.269539 0.718782
vt 0.242650 0.730080
vt 0.708411 0.764112
vt 0.728073 0.761947
vt 0.710851 0.722425
vt 0.724728 0.717273
vt 0.272887 0.791954
vt 0.310741 0.729348
vt 0.244307 0.745394
vt 0.719496 0.709601
vt 0.476783 0.729348
vt 0.490746 0.729383
vt 0.466014 0.768852
vt 0.679745 0.803003
vt 0.674069 0.812028
vt 0.667736 0.805275
vt 0.462183 0.601716
vt 0.399440 0.636247
vt 0.392365 0.593824
vt 0.359505 0.665888
vt 0.348709 0.613155
vt 0.416689 0.750227
vt 0.416689 0.815557
vt 0.392514 0.729348
vt 0.699492 0.108346
vt 0.547905 0.824852
vt 0.500671 0.805895
vt 0.547905 0.709601
vt 0.495409 0.729348
vt 0.495409 0.810296
vt 0.490746 0.759804
vt 0.796008 0.767004
vt 0.851593 0.740552
vt 0.825909 0.812584
vt 0.515730 0.859463
vt 0.890080 0.530272
vt 0.760704 0.717578
vt 0.742950 0.732426
vt 0.806386 0.723780
vt 0.060556 0.846617
vt 0.102611 0.801810
vt 0.096789 0.857977
vt 0.124143 0.824847
vt 0.851593 0.561276
vt 0.790420 0.632829
vt 0.743576 0.613756
vt 0.000000 0.732189
vt 0.075022 0.746800
vt 0.029730 0.817616
vt 0.154887 0.189077
vt 0.115107 0.248875
vt 0.133882 0.153522
vt 0.120619 0.108055
vt 0.149487 0.146368
vt 0.066993 0.078714
vt 0.019456 0.205673
vt 0.052477 0.249906
vt 0.000000 0.251713
vt 0.080484 0.188837
vt 0.043784 0.145251
vt 0.344849 0.679220
vt 0.364823 0.717260
vt 0.060209 0.297820
vt 0.004604 0.291691
vt 0.127011 0.294594
vt 0.153473 0.366289
vt 0.103190 0.371978
vt 0.243855 0.787079
vt 0.229554 0.780396
vt 0.237190 0.745394
vt 0.243855 0.745518
vt 0.285142 0.378376
vt 0.294994 0.087089
vt 0.322910 0.377734
vt 0.315504 0.005049
vt 0.053388 0.087696
vt 0.271951 0.636409
vt 0.272887 0.590051
vt 0.956329 0.010127
vt 0.981067 0.015478
vt 1.000000 0.081271
vt 0.960025 0.072929
vt 0.959282 0.524855
vt 1.000000 0.520573
vt 0.443521 0.725009
vt 0.417564 0.729348
vt 0.913211 0.003716
vt 0.894413 0.063347
vt 0.071542 0.654101
vt 0.087761 0.648368
vt 0.781097 0.449390
vt 0.774167 0.536088
vt 0.810201 0.356320
vt 0.876971 0.000000
vt 0.841600 0.058140
vt 0.841331 0.205374
vt 0.110031 0.647047
vt 0.768821 0.354275
vt 0.730966 0.445548
vt 0.732433 0.500773
vt 0.554089 0.249366
vt 0.553138 0.282856
vt 0.500671 0.263841
vt 0.515996 0.211138
vt 0.661712 0.006677
vt 0.549967 0.708954
vt 0.508443 0.698454
vt 0.503147 0.643112
vt 0.566759 0.658236
vt 0.624983 0.000000
vt 0.654177 0.387363
vt 0.246633 0.663447
vt 0.270152 0.647047
vt 0.259199 0.745394
vt 0.588951 0.709601
vt 0.624080 0.658162
vt 0.621359 0.527593
vt 0.699398 0.385950
vt 0.730966 0.300589
vt 0.730966 0.230487
vt 0.445487 0.546804
vt 0.441278 0.458666
vt 0.500671 0.464166
vt 0.500671 0.533206
vt 0.425124 0.364702
vt 0.474976 0.366022
vt 0.410573 0.063694
vt 0.453462 0.057013
vt 0.479870 0.206207
vt 0.652784 0.711013
vt 0.679745 0.709601
vt 0.674848 0.722235
vt 0.394406 0.000000
vt 0.272887 0.485264
vt 0.317314 0.487478
vt 0.371519 0.375694
vt 0.376019 0.469949
vt 0.383952 0.529455
vt 0.324633 0.528860
vt 0.333620 0.730641
vt 0.376759 0.723114
vt 0.669328 0.759445
vt 0.640007 0.777891
vt 0.624208 0.717635
vt 0.397322 0.571813
vt 0.439909 0.586620
vt 0.295988 0.730130
vt 0.231870 0.693393
vt 0.490746 0.766273
vt 0.633281 0.788879
vt 0.334351 0.565528
vt 0.439154 0.742387
vt 0.466014 0.729348
vt 0.466014 0.767549
vt 0.678290 0.204857
vt 0.724871 0.175606
vt 0.481713 0.581574
vt 0.386178 0.772426
vt 0.706356 0.145813
vt 0.572799 0.211577
vt 0.633142 0.117089
vt 0.547905 0.787835
vt 0.568526 0.709601
vt 0.624208 0.787835
vt 0.558425 0.138994
vt 0.535174 0.123213
vt 0.386178 0.786152
vt 0.338051 0.739161
vt 0.386178 0.729348
vt 0.837460 0.713075
vt 0.806298 0.695649
vt 0.730966 0.671552
vt 0.762555 0.678223
vt 0.260133 0.140743
vt 0.272887 0.175894
vt 0.211220 0.171891
vt 0.124143 0.654239
vt 0.937984 0.555580
vt 0.788274 0.555580
vt 0.214638 0.130563
vn 0.2306 0.3486 0.9085
vn 0.0332 -0.9424 -0.3329
vn 0.5786 -0.3795 -0.7220
vn 0.2589 -0.9424 -0.2119
vn 0.9504 0.0421 -0.3081
vn 0.4071 0.7770 0.4800
vn -0.2143 0.5560 -0.8031
vn 0.9775 -0.1246 -0.1701
vn 0.6480 0.6762 -0.3506
vn 0.3329 -0.9424 0.0332
vn -0.8046 0.5728 -0.1565
vn 0.9781 -0.1247 0.1666
vn 0.9810 0.1686 0.0965
vn 0.2119 -0.9424 0.2589
vn 0.4430 0.0049 0.8965
vn 0.5224 0.8404 -0.1442
vn -0.5009 0.8209 -0.2743
vn -0.0914 0.6018 -0.7934
vn 0.5805 -0.1254 0.8045
vn -0.0332 -0.9424 0.3329
vn -0.5785 -0.1267 0.8058
vn -0.2589 -0.9424 0.2119
vn -0.9646 0.0985 0.2447
vn -0.8123 -0.1264 0.5694
vn -0.7847 0.0013 0.6198
vn -0.9158 0.1456 0.3744
vn -0.3329 -0.9424 -0.0332
vn -0.5008 0.8140 0.2943
vn -0.3761 0.5604 0.7379
vn -0.6861 0.2044 -0.6982
vn -0.2119 -0.9424 -0.2589
vn -0.1433 -0.3759 -0.9155
vn 0.4078 0.8996 -0.1562
vn -0.9155 0.3890 0.1023
vn -0.9626 0.0762 0.2600
vn -0.3374 0.1084 -0.9351
vn -0.8627 -0.0610 -0.5021
vn 0.7437 0.2279 0.6285
vn -0.8965 0.3505 0.2709
vn -0.9029 0.1441 -0.4050
vn 0.1226 0.8660 0.4848
vn -0.0259 0.7690 -0.6387
vn -0.5188 0.6075 -0.6015
vn -0.4933 0.4149 -0.7645
vn -0.3313 0.8027 -0.4959
vn -0.9846 0.1539 0.0825
vn -0.4214 0.8317 0.3614
vn -0.2765 0.3292 -0.9029
vn -0.4767 0.8184 0.3208
vn -0.5578 0.8114 0.1744
vn 0.4259 0.3066 0.8512
vn 0.4399 0.8031 0.4019
vn 0.4490 0.7268 0.5197
vn 0.5589 0.5114 0.6528
vn 0.0572 0.4825 0.8740
vn 0.0856 0.9337 0.3477
vn 0.8461 0.4543 0.2789
vn 0.7652 0.2942 -0.5726
vn 0.9228 0.3798 0.0649
vn 0.7691 0.4620 -0.4417
vn 0.7713 0.4792 -0.4188
vn 0.1878 0.5672 -0.8019
vn 0.3333 0.7339 -0.5918
vn 0.5092 0.4482 -0.7347
vn 0.5521 0.2510 -0.7951
vn -0.0840 0.4199 -0.9037
vn 0.0202 0.2706 -0.9625
vn 0.2777 0.1626 -0.9468
vn 0.6036 0.1188 -0.7884
vn 0.5636 -0.2525 -0.7865
vn 0.1513 0.9697 -0.1921
vn 0.2283 -0.1555 -0.9611
vn 0.5704 -0.1467 -0.8081
vn 0.1330 -0.4082 -0.9032
vn 0.2020 0.2396 -0.9496
vn 0.7322 -0.4074 -0.5459
vn 0.7963 -0.2286 -0.5601
vn 0.8137 0.0697 -0.5771
vn 0.9625 -0.2280 -0.1468
vn -0.0263 0.8370 0.5466
vn 0.9106 -0.3961 0.1180
vn -0.2190 0.5632 -0.7968
vn 0.8875 -0.1645 -0.4304
vn 0.8103 -0.1429 -0.5683
vn 0.9537 -0.1551 -0.2575
vn 0.8440 0.5335 -0.0547
vn 0.9579 -0.2232 0.1808
vn 0.7972 -0.2176 0.5631
vn -0.5574 0.7398 -0.3768
vn 0.9550 -0.1853 0.2316
vn 0.5604 -0.3961 0.7273
vn 0.8142 -0.1249 0.5669
vn 0.8588 -0.1543 0.4885
vn 0.9150 0.2679 0.3018
vn 0.5801 -0.2224 0.7836
vn 0.1686 0.1218 0.9781
vn 0.2161 -0.2609 0.9409
vn 0.5137 -0.1862 0.8376
vn -0.1180 -0.3961 0.9106
vn 0.1723 -0.1328 0.9761
vn 0.2479 -0.1569 0.9560
vn 0.4969 0.3369 0.7997
vn -0.1605 -0.3043 0.9390
vn -0.1383 0.1837 0.9732
vn -0.6027 0.1931 0.7743
vn -0.5631 -0.3001 0.7700
vn -0.7141 0.6843 0.1477
vn -0.2300 -0.1858 0.9553
vn -0.7273 -0.3961 0.5604
vn -0.1749 -0.1323 0.9756
vn -0.4963 -0.1560 0.8540
vn -0.4079 0.2146 0.8874
vn -0.8184 -0.2452 0.5196
vn -0.8346 0.2995 0.4622
vn -0.9510 -0.2335 0.2027
vn -0.8386 -0.1856 0.5122
vn 0.6333 0.7738 0.0134
vn -0.5332 0.6241 0.5712
vn -0.2134 0.9628 -0.1658
vn -0.9106 -0.3961 -0.1180
vn -0.9753 -0.1299 0.1784
vn -0.9542 -0.1554 0.2557
vn -0.9494 -0.2589 -0.1778
vn -0.9696 0.1977 -0.1443
vn -0.7840 0.2163 -0.5818
vn -0.8316 -0.2521 -0.4949
vn -0.9552 -0.1858 -0.2302
vn 0.3758 0.6647 -0.6457
vn -0.5723 -0.4099 -0.7102
vn -0.9768 -0.1301 -0.1701
vn 0.2453 -0.2897 -0.9252
vn -0.8364 -0.1540 -0.5260
vn -0.9560 0.2353 -0.1754
vn -0.5741 -0.2839 -0.7680
vn -0.6684 0.2220 -0.7099
vn -0.3299 0.1988 -0.9228
vn -0.1839 -0.3153 -0.9310
vn -0.5913 -0.1741 -0.7874
vn -0.9051 0.3940 0.1597
vn 0.1104 0.2856 0.9520
vn -0.1786 -0.1615 -0.9706
vn -0.2412 -0.1711 -0.9553
vn -0.3067 0.1810 -0.9344
vn 0.5443 0.2019 -0.8142
vn 0.9644 0.1592 -0.2110
vn -0.5552 -0.0412 -0.8307
vn -0.2466 -0.1729 -0.9536
vn -0.5083 0.4854 -0.7113
vn 0.4606 0.1075 -0.8810
vn 0.7247 0.1229 -0.6780
vn 0.8616 0.2667 0.4320
vn -0.8457 0.5317 -0.0456
vn -0.9885 -0.1237 0.0868
vn 0.1787 0.8784 0.4432
vn 0.6826 0.7148 0.1520
vn -0.2115 0.5902 -0.7790
vn -0.1506 0.7762 -0.6122
vn -0.2048 0.6912 -0.6931
vn -0.2886 0.6192 -0.7303
vn -0.8127 0.5758 0.0899
vn -0.3623 0.1403 -0.9214
vn -0.7179 0.4754 -0.5086
vn -0.0969 0.9938 -0.0542
vn -0.7960 0.6023 -0.0594
vn -0.5861 0.7428 0.3237
vn -0.6131 0.5421 0.5746
vn -0.4953 0.4501 -0.7430
vn -0.5608 0.1273 -0.8181
vn -0.5584 0.6297 0.5401
vn -0.3903 0.5876 0.7088
vn -0.7348 0.2326 0.6371
vn -0.4335 0.2430 0.8678
vn -0.6320 0.7534 0.1814
vn -0.1138 0.9676 0.2255
vn -0.3177 0.7140 0.6239
vn -0.3279 0.7078 0.6257
vn 0.0227 0.9338 0.3571
vn 0.5839 0.4102 0.7006
vn 0.9356 0.3280 0.1304
vn 0.0901 0.3823 0.9196
vn 0.7550 0.3129 0.5762
vn 0.5167 0.8419 0.1556
vn -0.0600 0.9488 0.3101
vn 0.6921 0.7124 -0.1163
vn 0.8885 0.3975 0.2294
vn 0.0296 0.8841 0.4663
vn 0.8014 0.5352 0.2671
vn 0.7940 0.4182 0.4411
vn 0.9140 0.2905 -0.2832
vn 0.3444 0.7307 -0.5894
vn 0.5498 0.5010 -0.6684
vn 0.3087 0.2589 -0.9153
vn 0.4173 0.4556 -0.7863
vn 0.8249 0.3845 -0.4144
usemtl None
s off
f 95/1/1 21/2/1 82/3/1
f 76/4/2 77/5/2 9/6/2
f 35/7/3 77/8/3 38/9/3
f 77/5/4 41/10/4 9/6/4
f 44/11/5 7/12/5 125/13/5
f 10/14/6 75/15/6 57/16/6
f 75/17/7 90/18/7 79/19/7
f 43/20/8 8/21/8 40/22/8
f 45/23/9 51/24/9 100/25/9
f 41/10/10 78/26/10 9/6/10
f 17/27/11 92/28/11 74/29/11
f 8/30/12 49/31/12 40/32/12
f 100/25/13 51/24/13 121/33/13
f 78/26/14 80/34/14 9/6/14
f 11/35/15 56/36/15 126/37/15
f 10/38/16 51/39/16 75/40/16
f 45/41/17 22/42/17 51/43/17
f 51/44/18 22/45/18 75/17/18
f 12/46/19 55/47/19 47/48/19
f 80/34/20 81/49/20 9/6/20
f 61/50/21 16/51/21 59/52/21
f 81/49/22 83/53/22 9/6/22
f 67/54/23 63/55/23 128/56/23
f 16/51/24 66/57/24 59/52/24
f 68/58/25 108/59/25 117/60/25
f 68/58/26 17/27/26 108/59/26
f 83/53/27 84/61/27 9/6/27
f 68/62/28 79/63/28 91/64/28
f 13/65/29 79/63/29 68/62/29
f 74/66/30 88/67/30 115/68/30
f 84/61/31 76/4/31 9/6/31
f 32/69/32 76/70/32 85/71/32
f 1/72/33 82/73/33 4/74/33
f 89/75/34 21/76/34 22/77/34
f 21/76/35 96/78/35 23/79/35
f 90/18/36 94/80/36 93/81/36
f 94/80/37 23/82/37 24/83/37
f 92/84/38 25/85/38 95/1/38
f 23/79/39 96/78/39 99/86/39
f 99/87/40 24/83/40 23/82/40
f 97/88/41 99/89/41 25/90/41
f 24/91/42 99/92/42 97/93/42
f 111/94/43 110/95/43 131/96/43
f 110/95/44 113/97/44 26/98/44
f 111/99/45 131/100/45 114/101/45
f 17/27/46 115/102/46 108/59/46
f 15/103/47 30/104/47 67/105/47
f 106/106/48 30/107/48 107/108/48
f 29/109/49 107/110/49 62/111/49
f 62/112/50 30/104/50 15/103/50
f 46/113/51 56/36/51 11/35/51
f 118/114/52 29/109/52 56/115/52
f 118/114/53 28/116/53 29/109/53
f 104/117/54 105/118/54 118/119/54
f 105/118/55 28/120/55 118/119/55
f 103/121/56 120/122/56 119/123/56
f 102/124/57 121/125/57 120/126/57
f 33/127/58 44/11/58 5/128/58
f 122/129/59 102/130/59 103/131/59
f 101/132/60 102/130/60 122/129/60
f 100/25/61 102/130/61 101/132/61
f 27/133/62 37/134/62 2/135/62
f 123/136/63 33/127/63 37/134/63
f 26/137/64 123/136/64 27/133/64
f 101/132/65 122/129/65 123/136/65
f 113/97/66 101/138/66 26/98/66
f 113/97/67 4/139/67 101/138/67
f 37/134/68 124/140/68 31/141/68 2/135/68
f 5/128/69 34/142/69 124/140/69 37/134/69
f 34/142/70 6/143/70 36/144/70 124/140/70
f 82/145/71 1/146/71 88/147/71 95/148/71
f 36/149/72 38/150/72 32/69/72 3/151/72
f 6/143/73 35/7/73 38/9/73 36/144/73
f 77/152/74 76/70/74 32/69/74 38/150/74
f 113/153/75 1/72/75 4/74/75
f 41/154/76 77/8/76 35/7/76 42/155/76
f 125/13/77 43/20/77 6/143/77 34/142/77
f 125/13/78 34/142/78 5/128/78 44/11/78
f 8/21/79 43/20/79 125/13/79 7/12/79
f 79/63/80 13/65/80 57/16/80 75/15/80
f 78/156/81 41/157/81 42/158/81 48/159/81
f 75/17/82 22/45/82 90/18/82
f 35/7/83 43/20/83 42/155/83
f 35/7/84 6/143/84 43/20/84
f 42/155/85 43/20/85 40/22/85
f 100/25/86 4/74/86 45/23/86
f 50/160/87 49/31/87 8/30/87 7/161/87
f 11/35/88 12/46/88 49/31/88 50/160/88
f 92/162/89 95/163/89 88/67/89 74/66/89
f 48/159/90 42/158/90 40/32/90 49/31/90
f 80/164/91 78/156/91 48/159/91 54/165/91
f 49/31/92 12/46/92 47/48/92
f 48/159/93 49/31/93 47/48/93
f 121/125/94 51/166/94 10/167/94
f 55/47/95 12/46/95 11/35/95 126/37/95
f 52/168/96 126/37/96 56/36/96 29/169/96
f 14/170/97 55/47/97 126/37/97 52/168/97
f 54/165/98 48/159/98 47/48/98 55/47/98
f 81/171/99 80/164/99 54/165/99 60/172/99
f 55/47/100 14/170/100 53/173/100
f 54/165/101 55/47/101 53/173/101
f 121/125/102 10/167/102 57/174/102
f 61/175/103 14/170/103 52/168/103 127/176/103
f 62/177/104 127/176/104 52/168/104 29/169/104
f 15/178/105 58/179/105 127/180/105 62/181/105
f 58/179/106 16/51/106 61/50/106 127/180/106
f 92/28/107 17/27/107 68/58/107 91/182/107
f 60/172/108 54/165/108 53/173/108 61/175/108
f 83/183/109 81/184/109 60/185/109 65/186/109
f 53/173/110 14/170/110 61/175/110
f 60/185/111 61/50/111 59/52/111
f 13/187/112 68/58/112 117/60/112
f 128/56/113 66/57/113 16/51/113 58/179/113
f 67/54/114 128/56/114 58/179/114 15/178/114
f 18/188/115 66/57/115 128/56/115 63/55/115
f 65/186/116 60/185/116 59/52/116 66/57/116
f 4/74/117 82/73/117 45/23/117
f 45/189/118 82/190/118 89/75/118
f 45/41/119 89/191/119 22/42/119
f 84/192/120 83/183/120 65/186/120 71/193/120
f 66/57/121 18/188/121 64/194/121
f 65/186/122 66/57/122 64/194/122
f 72/195/123 18/188/123 63/55/123 129/196/123
f 129/196/124 63/55/124 67/54/124 73/197/124
f 19/198/125 70/199/125 129/200/125 73/201/125
f 70/199/126 20/202/126 72/203/126 129/200/126
f 71/204/127 65/205/127 64/206/127 72/203/127
f 91/207/128 79/208/128 90/209/128
f 76/70/129 84/210/129 71/204/129 85/71/129
f 64/194/130 18/188/130 72/195/130
f 124/211/131 36/149/131 3/151/131 31/212/131
f 71/204/132 72/203/132 20/202/132
f 17/27/133 74/29/133 115/102/133
f 86/213/134 20/202/134 70/199/134 130/214/134
f 87/215/135 130/214/135 70/199/135 19/198/135
f 31/212/136 130/214/136 87/215/136 2/216/136
f 3/151/137 86/213/137 130/214/137 31/212/137
f 85/71/138 71/204/138 20/202/138 86/213/138
f 82/190/139 21/76/139 89/75/139
f 25/85/140 96/217/140 21/2/140 95/1/140
f 86/213/141 3/151/141 32/69/141
f 85/71/142 86/213/142 32/69/142
f 88/67/143 1/218/143 113/97/143
f 93/219/144 98/220/144 91/207/144 90/209/144
f 92/221/145 91/207/145 98/220/145
f 90/18/146 22/45/146 94/80/146
f 93/81/147 94/80/147 24/83/147
f 112/222/148 87/215/148 19/198/148 69/223/148
f 93/219/149 24/91/149 97/93/149
f 93/219/150 97/93/150 98/220/150
f 92/84/151 98/224/151 25/85/151
f 22/77/152 21/76/152 94/225/152
f 94/225/153 21/76/153 23/79/153
f 25/90/154 99/89/154 96/226/154
f 98/220/155 97/93/155 25/227/155
f 27/228/156 2/216/156 87/215/156 112/222/156
f 69/229/157 131/230/157 112/231/157
f 27/228/158 112/222/158 131/96/158 26/98/158
f 131/96/159 110/95/159 26/98/159
f 73/197/160 67/54/160 109/232/160 114/233/160
f 110/95/161 88/67/161 113/97/161
f 19/198/162 73/201/162 114/234/162 69/223/162
f 114/101/163 131/100/163 69/235/163
f 111/236/164 109/232/164 108/59/164 115/102/164
f 109/232/165 111/236/165 114/233/165
f 109/232/166 30/237/166 116/238/166 108/59/166
f 115/68/167 110/95/167 111/94/167
f 115/68/168 88/67/168 110/95/168
f 67/54/169 30/237/169 109/232/169
f 106/239/170 116/240/170 30/241/170
f 116/238/171 106/242/171 117/60/171 108/59/171
f 106/242/172 105/243/172 13/187/172 117/60/172
f 62/244/173 107/245/173 30/246/173
f 29/109/174 28/116/174 107/110/174
f 107/110/175 28/116/175 106/247/175
f 105/248/176 106/247/176 28/116/176
f 56/115/177 46/249/177 104/250/177 118/114/177
f 57/174/178 105/118/178 104/117/178 121/125/178
f 119/251/179 50/252/179 7/12/179 39/253/179
f 57/174/180 13/254/180 105/118/180
f 11/35/181 50/160/181 119/255/181 46/113/181
f 39/256/182 103/121/182 119/123/182
f 119/123/183 104/250/183 46/249/183
f 103/131/184 39/253/184 33/127/184 122/129/184
f 103/131/185 102/130/185 120/257/185
f 119/123/186 120/122/186 104/250/186
f 102/130/187 100/25/187 121/33/187
f 120/126/188 121/125/188 104/117/188
f 39/253/189 7/12/189 44/11/189 33/127/189
f 27/133/190 123/136/190 37/134/190
f 37/134/191 33/127/191 5/128/191
f 26/137/192 101/132/192 123/136/192
f 123/136/193 122/129/193 33/127/193
f 4/74/194 100/25/194 101/132/194
