# Blender v3.1.2 OBJ File: ''
# www.blender.org
mtllib shark.mtl
o Cube_Cube.001
v -0.079743 -2.537825 0.299757
v -0.079743 -2.537825 -0.299757
v 0.079743 -2.537825 0.299757
v 0.071907 2.298815 0.774636
v 0.079743 -2.537825 -0.299757
v -0.226277 0.000000 1.000000
v -0.266024 0.000000 -1.000000
v 0.266024 0.000000 -1.000000
v 0.226277 0.000000 1.000000
v -0.034736 2.298815 0.774636
v -0.045032 2.214187 0.293966
v -0.072883 1.972164 -0.108349
v -0.113052 1.597940 -0.445361
v -0.159673 1.125178 -0.732051
v -0.210973 0.582435 -0.931852
v 0.210973 0.582435 -0.931852
v 0.159673 1.125178 -0.732051
v 0.118190 1.597940 -0.445361
v 0.090754 1.972164 -0.108349
v 0.076106 2.214187 0.293966
v 0.015041 1.860414 0.817615
vt 0.620741 0.685295
vt 0.625000 0.750000
vt 0.500000 0.750000
vt 0.562500 0.216506
vt 0.532352 0.241481
vt 0.500000 0.000000
vt 0.500000 1.000000
vt 0.601162 0.952323
vt 0.375000 0.500000
vt 0.125000 0.750000
vt 0.125000 0.500000
vt 0.375000 1.000000
vt 0.375000 0.750000
vt 0.500000 0.500000
vt 0.500000 0.250000
vt 0.375000 0.250000
vt 0.375000 0.000000
vt 0.875000 0.750000
vt 0.608010 0.685295
vt 0.891991 0.685295
vt 0.558196 0.625000
vt 0.941804 0.625000
vt 0.625000 0.500000
vt 0.875000 0.500000
vt 0.625000 0.250000
vt 0.562500 0.500000
vt 0.562500 0.250000
vt 0.532352 0.250000
vt 0.532352 0.500000
vt 0.532352 0.508519
vt 0.562500 0.533494
vt 0.588388 0.573223
vt 0.608253 0.625000
vt 0.625000 0.000000
vt 0.620741 0.064705
vt 0.608253 0.125000
vt 0.588388 0.176777
vt 0.625000 1.000000
vn 0.9978 0.0667 -0.0030
vn -0.9960 0.0874 0.0184
vn 0.0000 0.0976 0.9952
vn 0.0000 -1.0000 0.0000
vn 0.0000 -0.2660 0.9640
vn 0.9973 -0.0732 0.0000
vn 0.0000 -0.2660 -0.9640
vn -0.9983 -0.0576 0.0000
vn 0.0000 0.9849 -0.1734
vn 0.0000 0.8569 -0.5155
vn 0.0000 0.6692 -0.7431
vn 0.0000 0.5185 -0.8551
vn 0.0000 0.3455 -0.9384
vn 0.0000 0.1162 -0.9932
vn 0.9956 0.0918 0.0198
vn 0.9960 0.0874 0.0184
vn 0.9968 0.0794 0.0133
vn 0.9975 0.0703 0.0031
vn 0.9978 0.0665 -0.0037
vn -0.9956 0.0918 0.0198
vn -0.9965 0.0837 0.0066
vn -0.9961 0.0869 0.0167
vn -0.9958 0.0888 0.0201
vn -0.9960 0.0871 0.0183
vn 0.9978 -0.0631 0.0198
vn -0.9975 -0.0677 0.0198
usemtl None
s off
f 20/1/1 4/2/1 9/3/1
f 14/4/2 15/5/2 6/6/2
f 6/7/3 9/3/3 21/8/3
f 5/9/4 1/10/4 2/11/4
f 9/3/5 1/12/5 3/13/5
f 8/14/6 3/13/6 5/9/6
f 7/15/7 5/9/7 2/16/7
f 6/6/8 2/16/8 1/17/8
f 10/18/9 20/19/9 11/20/9
f 11/20/10 19/21/10 12/22/10
f 12/22/11 18/23/11 13/24/11
f 13/25/12 17/26/12 14/27/12
f 17/26/13 15/28/13 14/27/13
f 16/29/14 7/15/14 15/28/14
f 9/3/15 8/14/15 16/30/15
f 16/30/16 17/31/16 9/3/16
f 17/31/17 18/32/17 9/3/17
f 18/32/18 19/33/18 9/3/18
f 19/33/19 20/1/19 9/3/19
f 7/15/20 6/6/20 15/5/20
f 6/6/21 10/34/21 11/35/21
f 12/36/22 6/6/22 11/35/22
f 12/36/23 13/37/23 6/6/23
f 13/37/24 14/4/24 6/6/24
f 10/38/3 6/7/3 21/8/3
f 5/9/4 3/13/4 1/10/4
f 9/3/5 6/7/5 1/12/5
f 8/14/25 9/3/25 3/13/25
f 7/15/7 8/14/7 5/9/7
f 6/6/26 7/15/26 2/16/26
f 10/18/9 4/2/9 20/19/9
f 11/20/10 20/19/10 19/21/10
f 12/22/11 19/21/11 18/23/11
f 13/25/12 18/23/12 17/26/12
f 17/26/13 16/29/13 15/28/13
f 16/29/14 8/14/14 7/15/14
f 4/2/3 10/38/3 21/8/3
f 9/3/3 4/2/3 21/8/3
